<svg version="1.1" xmlns="http://www.w3.org/2000/svg" xmlns:xlink="http://www.w3.org/1999/xlink" width="54.3" height="52.51001" viewBox="0,0,54.3,52.51001"><g transform="translate(-228.97002,-112.93133)"><g stroke-miterlimit="10"><path d="M282.52002,119.78134c0,3.36894 -11.81968,6.1 -26.4,6.1c-14.58032,0 -26.4,-2.73106 -26.4,-6.1c0,-3.36894 11.81968,-6.1 26.4,-6.1c14.58032,0 26.4,2.73106 26.4,6.1z" fill="none" stroke="#fff700" stroke-width="1.5"/><text transform="translate(231.76957,154.58832) scale(0.88236,0.88236)" font-size="40" xml:space="preserve" fill="#000000" stroke="none" stroke-width="1" font-family="&quot;BIZ UDGothic&quot;, Sans Serif" font-weight="normal" text-anchor="start"><tspan x="0" dy="0">🥚</tspan></text><path d="M254.76668,137.13333c0,1.7489 -0.44771,3.16667 -1,3.16667c-0.55229,0 -1,-1.41777 -1,-3.16667c0,-1.7489 0.44771,-3.16667 1,-3.16667c0.55229,0 1,1.41777 1,3.16667z" fill="#000000" stroke="none" stroke-width="0"/><path d="M260.76668,137.38333c0,1.79493 -0.59695,3.25 -1.33333,3.25c-0.73638,0 -1.33333,-1.45507 -1.33333,-3.25c0,-1.79493 0.59695,-3.25 1.33333,-3.25c0.73638,0 1.33333,1.45507 1.33333,3.25z" fill="#000000" stroke="none" stroke-width="0"/><path d="M263.94399,149.03937c0.02778,-0.14482 0.12796,-0.40602 0.48935,-0.40602c0.5,0 0.5,0.5 0.5,0.5l-0.2,0.56667c-1.84201,1.38151 -3.10731,1.53251 -5.16021,2.24673c-1.64082,0.40819 -5.48904,1.28205 -7.16447,0.48188c-1.46986,-0.70199 -2.85798,-2.64064 -3.99555,-3.77505c0,0 -0.35355,-0.35355 0,-0.70711c0.35355,-0.35355 0.70711,0 0.70711,0c1.07818,1.08096 2.33462,2.82732 3.67112,3.55828c1.33486,0.73006 5.14812,-0.178 6.5022,-0.51812c1.93623,-0.62321 2.99123,-0.74982 4.65045,-1.94725z" fill="#000000" stroke="none" stroke-width="0.5"/><path d="M267.43333,146.63333v-1.33333h9.83333v1.33333z" fill="#000000" stroke="none" stroke-width="0"/><path d="M267.38997,151.07283l0.39469,-1.03865l9.19204,3.49298l-0.39469,1.03865z" fill="#000000" stroke="none" stroke-width="0"/><path d="M267.16234,141.67863l-0.47618,-1.2454l9.18484,-3.51185l0.47618,1.2454z" fill="#000000" stroke="none" stroke-width="0"/><path d="M235.76667,146.46667v-1.33333h9.83333v1.33333z" fill="#000000" stroke="none" stroke-width="0"/><path d="M237.05056,153.79479l-0.41432,-1.26732l9.34654,-3.0556l0.41432,1.26732z" fill="#000000" stroke="none" stroke-width="0"/><path d="M237.29232,137.95057l0.5743,-1.20331l8.8744,4.23551l-0.5743,1.20331z" fill="#000000" stroke="none" stroke-width="0"/></g></g></svg>