<svg version="1.1" xmlns="http://www.w3.org/2000/svg" xmlns:xlink="http://www.w3.org/1999/xlink" width="566.60314" height="356.07614" viewBox="0,0,566.60314,356.07614"><g transform="translate(25.71499,39.77704)"><g stroke-miterlimit="10"><path d="M-13.3634,-38.77501h547.9419v290l-546.85516,-15z" fill="#99ffff" stroke="#ccffff" stroke-width="2.00406"/><path d="M479.77412,209.65145c15.09608,-0.53467 32.08752,4.24571 41.33687,13.54706c9.84865,9.85909 7.15001,24.5634 6.31786,37.03823c0.40615,12.83656 2.07045,27.53944 -7.58143,37.975c-8.91721,9.66597 -25.15953,16.72053 -40.07329,16.64559c-22.18653,-0.11097 -47.46519,-5.89442 -63.80318,-15.41627c-16.33799,-9.5233 -26.45198,-22.67403 -26.45198,-37.18667c0,-14.51264 10.11399,-27.66338 26.45198,-37.18668c16.33799,-9.52185 41.6329,-14.64524 63.80318,-15.41627z" fill="#00cc44" stroke="#00cc44" stroke-width="2.88236"/><path d="M96.60424,199.80145c15.41794,0 29.38853,3.84941 39.50435,10.06777c10.11582,6.21929 16.378,14.80753 16.378,24.28517c0,9.47764 -6.26218,18.06588 -16.378,24.28517c-10.11582,6.21835 -24.0864,10.06777 -39.50434,10.06777c-15.41794,0 -29.38853,-3.84942 -39.50435,-10.06777c-10.11582,-6.21929 -16.378,-14.80753 -16.378,-24.28517c0,-9.47764 6.26218,-18.06588 16.378,-24.28517c10.11582,-6.21836 24.08641,-10.06777 39.50435,-10.06777z" fill="#00cc44" stroke="#00cc44" stroke-width="2.06637"/><path d="M210.07777,192.10145c19.88103,0 37.89573,5.89441 50.93982,15.41626c13.04409,9.52329 21.119,22.67403 21.119,37.18668c0,14.51265 -8.07491,27.66338 -21.119,37.18667c-13.04409,9.52185 -31.05879,15.41627 -50.93982,15.41627c-19.88103,0 -37.89573,-5.89441 -50.93982,-15.41627c-13.04409,-9.5233 -21.119,-22.67403 -21.119,-37.18667c0,-14.51264 8.07491,-27.66338 21.119,-37.18668c13.04409,-9.52185 31.05879,-15.41626 50.93982,-15.41626z" fill="#00cc44" stroke="#00cc44" stroke-width="2.88236"/><path d="M338.07777,200.10145c19.88103,0 37.89573,5.89441 50.93982,15.41626c13.04409,9.52329 21.119,22.67403 21.119,37.18668c0,14.51265 -8.07491,27.66338 -21.119,37.18667c-13.04409,9.52185 -31.05879,15.41627 -50.93982,15.41627c-19.88103,0 -37.89573,-5.89441 -50.93982,-15.41627c-13.04409,-9.5233 -21.119,-22.67403 -21.119,-37.18667c0,-14.51264 8.07491,-27.66338 21.119,-37.18668c13.04409,-9.52185 31.05879,-15.41626 50.93982,-15.41626z" fill="#00cc44" stroke="#00cc44" stroke-width="2.88236"/><path d="M-4.28041,207.22204c9.35906,-3.21318 25.50003,10.32094 35.55934,19.19717c7.58031,6.67388 16.15973,14.98541 16.15973,24.28518c0,9.29976 -6.34744,20.24658 -16.15973,24.28517l-32.41649,-3.76753l-1.54385,-34.96471c-0.50617,-11.64329 -9.22011,-27.32893 -1.59899,-29.03529z" fill="#00cc44" stroke="#00cc44" stroke-width="1.65924"/><path d="M-9.29673,241.22499l497.41667,-3l8.46666,60l-508,5z" fill="#00cc44" stroke="#00cc44" stroke-width="2"/><path d="M-24.40093,272.84168h563.97502v24.93334h-563.97502z" fill="#663b00" stroke="#663b00" stroke-width="2.62812"/><path d="M435.03502,151.48932l30.94106,-8.96565l24.72393,9.95496v119.08855h-57.4l1.73501,-120.07786" fill="#7aded4" stroke="none" stroke-width="1"/><path d="M465.61461,142.4l0.28917,129.6h-32.60378v-120.94351c0,0 28.41083,-7.29618 32.31461,-8.65649z" fill="#e7f5f5" stroke="none" stroke-width="1"/><path d="M461.42166,149.1397l-25.08539,5.93588" fill="none" stroke="#7aded4" stroke-width="4.4846"/><path d="M436.33627,160.88779l25.08539,-5.99771" fill="none" stroke="#7aded4" stroke-width="4.4846"/><path d="M436.33627,166.7l25.08539,-5.99771" fill="none" stroke="#7aded4" stroke-width="4.4846"/><path d="M461.42166,166.45267l-25.08539,5.99771" fill="none" stroke="#7aded4" stroke-width="4.4846"/><path d="M436.33627,178.2626l25.08539,-5.99771" fill="none" stroke="#7aded4" stroke-width="4.4846"/><path d="M461.42166,178.01527l-25.08539,5.99771" fill="none" stroke="#7aded4" stroke-width="4.4846"/><path d="M461.42166,183.82748l-25.08539,5.99771" fill="none" stroke="#7aded4" stroke-width="4.4846"/><path d="M461.42166,189.57787l-25.08539,5.99771" fill="none" stroke="#7aded4" stroke-width="4.4846"/><path d="M461.42166,195.39008l-25.08539,5.99771" fill="none" stroke="#7aded4" stroke-width="4.4846"/><path d="M461.42166,201.20229l-25.08539,5.93588" fill="none" stroke="#7aded4" stroke-width="4.4846"/><path d="M461.42166,206.95267l-25.08539,5.99771" fill="none" stroke="#7aded4" stroke-width="4.4846"/><path d="M461.42166,212.76489l-25.08539,5.93588" fill="none" stroke="#7aded4" stroke-width="4.4846"/><path d="M436.33627,224.51298l25.08539,-5.99771" fill="none" stroke="#7aded4" stroke-width="4.4846"/><path d="M436.33627,230.32519l25.08539,-5.99771" fill="none" stroke="#7aded4" stroke-width="4.4846"/><path d="M461.42166,230.07787l-25.08539,5.99771" fill="none" stroke="#7aded4" stroke-width="4.4846"/><path d="M436.33627,241.88779l25.08539,-5.99771" fill="none" stroke="#7aded4" stroke-width="4.4846"/><path d="M436.33627,247.63817l25.08539,-5.99771" fill="none" stroke="#7aded4" stroke-width="4.4846"/><path d="M461.42166,247.45267l-25.08539,5.99771" fill="none" stroke="#7aded4" stroke-width="4.4846"/><path d="M461.42166,253.20306l-25.08539,5.99771" fill="none" stroke="#7aded4" stroke-width="4.4846"/><path d="M436.33627,265.01298l25.08539,-5.99771" fill="none" stroke="#7aded4" stroke-width="4.4846"/><path d="M461.42166,264.82748l-25.08539,5.93588" fill="none" stroke="#7aded4" stroke-width="4.4846"/><path d="M74.96499,151.48932l1.73502,120.07786h-57.4v-119.08855l24.72393,-9.95496l30.94106,8.96565" fill="#7aded4" stroke="none" stroke-width="1"/><path d="M76.7,151.05649v120.94351h-32.60378l0.28917,-129.6c3.90378,1.36031 32.31461,8.65649 32.31461,8.65649z" fill="#e7f5f5" stroke="none" stroke-width="1"/><path d="M48.57834,149.1397l25.08539,5.93588" fill="none" stroke="#7aded4" stroke-width="4.4846"/><path d="M48.57834,154.89008l25.08539,5.99771" fill="none" stroke="#7aded4" stroke-width="4.4846"/><path d="M73.66373,166.7l-25.08539,-5.99771" fill="none" stroke="#7aded4" stroke-width="4.4846"/><path d="M73.66373,172.45038l-25.08539,-5.99771" fill="none" stroke="#7aded4" stroke-width="4.4846"/><path d="M48.57834,172.26489l25.08539,5.99771" fill="none" stroke="#7aded4" stroke-width="4.4846"/><path d="M73.66373,184.01298l-25.08539,-5.99771" fill="none" stroke="#7aded4" stroke-width="4.4846"/><path d="M48.57834,183.82748l25.08539,5.99771" fill="none" stroke="#7aded4" stroke-width="4.4846"/><path d="M48.57834,189.57787l25.08539,5.99771" fill="none" stroke="#7aded4" stroke-width="4.4846"/><path d="M73.66373,201.38779l-25.08539,-5.99771" fill="none" stroke="#7aded4" stroke-width="4.4846"/><path d="M73.66373,207.13817l-25.08539,-5.93588" fill="none" stroke="#7aded4" stroke-width="4.4846"/><path d="M73.66373,212.95038l-25.08539,-5.99771" fill="none" stroke="#7aded4" stroke-width="4.4846"/><path d="M48.57834,212.76489l25.08539,5.93588" fill="none" stroke="#7aded4" stroke-width="4.4846"/><path d="M73.66373,224.51298l-25.08539,-5.99771" fill="none" stroke="#7aded4" stroke-width="4.4846"/><path d="M48.57834,224.32748l25.08539,5.99771" fill="none" stroke="#7aded4" stroke-width="4.4846"/><path d="M73.66373,236.07558l-25.08539,-5.99771" fill="none" stroke="#7aded4" stroke-width="4.4846"/><path d="M73.66373,241.88779l-25.08539,-5.99771" fill="none" stroke="#7aded4" stroke-width="4.4846"/><path d="M73.66373,247.63817l-25.08539,-5.99771" fill="none" stroke="#7aded4" stroke-width="4.4846"/><path d="M48.57834,247.45267l25.08539,5.99771" fill="none" stroke="#7aded4" stroke-width="4.4846"/><path d="M48.57834,253.20306l25.08539,5.99771" fill="none" stroke="#7aded4" stroke-width="4.4846"/><path d="M73.66373,265.01298l-25.08539,-5.99771" fill="none" stroke="#7aded4" stroke-width="4.4846"/><path d="M48.57834,264.82748l25.08539,5.93588" fill="none" stroke="#7aded4" stroke-width="4.4846"/><text transform="translate(16.60001,105.8) scale(0.5,0.5)" font-size="40" xml:space="preserve" fill="#000000" stroke="none" stroke-width="1" font-family="&quot;BIZ UDGothic&quot;, Sans Serif" font-weight="normal" text-anchor="start"><tspan x="0" dy="0">↓自分</tspan></text></g></g></svg>